<svg aria-hidden="true" style="width:0;height:0;position:absolute;overflow:hidden" xmlns="http://www.w3.org/2000/svg"><defs><symbol id="delete" viewBox="0 0 32 32"><path d="M30.918 6.303 21.222 16l9.696 9.696a3.694 3.694 0 0 1-5.221 5.223l-9.698-9.697-9.697 9.697C5.581 31.64 4.637 32 3.692 32s-1.889-.36-2.61-1.081a3.694 3.694 0 0 1 0-5.223L10.778 16 1.082 6.303a3.693 3.693 0 0 1 5.221-5.222l9.698 9.697 9.697-9.697a3.693 3.693 0 0 1 5.222 5.222z"/></symbol><symbol id="title" viewBox="0 0 32 32"><path d="M29.333 16.517c-.267 0-.533.267-.533.533 0 .32.213.533.533.533s.533-.213.533-.533-.213-.533-.533-.533zM30.933 14.917c-.267 0-.533.267-.533.533 0 .32.213.533.533.533s.533-.213.533-.533-.213-.533-.533-.533zM27.733 14.917c-.267 0-.533.267-.533.533 0 .32.213.533.533.533s.533-.213.533-.533-.213-.533-.533-.533zM26.133 16.517c-.267 0-.533.267-.533.533 0 .32.213.533.533.533s.533-.213.533-.533-.213-.533-.533-.533zM22.933 16.517c-.267 0-.533.267-.533.533 0 .32.213.533.533.533s.533-.213.533-.533-.213-.533-.533-.533zM24.533 14.917c-.267 0-.533.267-.533.533 0 .32.213.533.533.533s.533-.213.533-.533-.213-.533-.533-.533zM21.333 14.917c-.267 0-.533.267-.533.533 0 .32.213.533.533.533s.533-.213.533-.533-.213-.533-.533-.533zM19.733 16.517c-.267 0-.533.267-.533.533 0 .32.213.533.533.533s.533-.213.533-.533-.213-.533-.533-.533zM16.533 16.517c-.267 0-.533.267-.533.533 0 .32.213.533.533.533s.533-.213.533-.533-.213-.533-.533-.533zM18.133 14.917c-.267 0-.533.267-.533.533 0 .32.213.533.533.533s.533-.213.533-.533-.213-.533-.533-.533zM29.333 13.317c-.267 0-.533.267-.533.533 0 .32.213.533.533.533s.533-.213.533-.533c0-.32-.213-.533-.533-.533zM29.333 10.117c-.267 0-.533.267-.533.533 0 .32.213.533.533.533s.533-.213.533-.533-.213-.533-.533-.533zM30.933 11.717c-.267 0-.533.267-.533.533 0 .32.213.533.533.533s.533-.213.533-.533-.213-.533-.533-.533zM27.733 11.717c-.267 0-.533.267-.533.533 0 .32.213.533.533.533s.533-.213.533-.533-.213-.533-.533-.533zM26.133 13.317c-.267 0-.533.267-.533.533 0 .32.213.533.533.533s.533-.213.533-.533c0-.32-.213-.533-.533-.533zM22.933 13.317c-.267 0-.533.267-.533.533 0 .32.213.533.533.533s.533-.213.533-.533c0-.32-.213-.533-.533-.533zM26.133 10.117c-.267 0-.533.267-.533.533 0 .32.213.533.533.533s.533-.213.533-.533-.213-.533-.533-.533zM22.933 10.117c-.267 0-.533.267-.533.533 0 .32.213.533.533.533s.533-.213.533-.533-.213-.533-.533-.533zM24.533 11.717c-.267 0-.533.267-.533.533 0 .32.213.533.533.533s.533-.213.533-.533-.213-.533-.533-.533zM21.333 11.717c-.267 0-.533.267-.533.533 0 .32.213.533.533.533s.533-.213.533-.533-.213-.533-.533-.533zM19.733 13.317c-.267 0-.533.267-.533.533 0 .32.213.533.533.533s.533-.213.533-.533c0-.32-.213-.533-.533-.533zM16.533 13.317c-.267 0-.533.267-.533.533 0 .32.213.533.533.533s.533-.213.533-.533c0-.32-.213-.533-.533-.533zM19.733 10.117c-.267 0-.533.267-.533.533 0 .32.213.533.533.533s.533-.213.533-.533-.213-.533-.533-.533zM16.533 10.117c-.267 0-.533.267-.533.533 0 .32.213.533.533.533s.533-.213.533-.533-.213-.533-.533-.533zM18.133 11.717c-.267 0-.533.267-.533.533 0 .32.213.533.533.533s.533-.213.533-.533-.213-.533-.533-.533zM29.333 6.917c-.267 0-.533.267-.533.533 0 .32.213.533.533.533s.533-.213.533-.533-.213-.533-.533-.533zM30.933 8.517c-.267 0-.533.267-.533.533 0 .32.213.533.533.533s.533-.213.533-.533-.213-.533-.533-.533zM27.733 8.517c-.267 0-.533.267-.533.533 0 .32.213.533.533.533s.533-.213.533-.533-.213-.533-.533-.533zM30.933 5.317c-.267 0-.533.267-.533.533 0 .32.213.533.533.533s.533-.213.533-.533-.213-.533-.533-.533zM27.733 5.317c-.267 0-.533.267-.533.533 0 .32.213.533.533.533s.533-.213.533-.533-.213-.533-.533-.533zM26.133 6.917c-.267 0-.533.267-.533.533 0 .32.213.533.533.533s.533-.213.533-.533-.213-.533-.533-.533zM22.933 6.917c-.267 0-.533.267-.533.533 0 .32.213.533.533.533s.533-.213.533-.533-.213-.533-.533-.533zM24.533 8.517c-.267 0-.533.267-.533.533 0 .32.213.533.533.533s.533-.213.533-.533-.213-.533-.533-.533zM21.333 8.517c-.267 0-.533.267-.533.533 0 .32.213.533.533.533s.533-.213.533-.533-.213-.533-.533-.533zM24.533 5.317c-.267 0-.533.267-.533.533 0 .32.213.533.533.533s.533-.213.533-.533-.213-.533-.533-.533zM21.333 5.317c-.267 0-.533.267-.533.533 0 .32.213.533.533.533s.533-.213.533-.533-.213-.533-.533-.533zM19.733 6.917c-.267 0-.533.267-.533.533 0 .32.213.533.533.533s.533-.213.533-.533-.213-.533-.533-.533zM16.533 6.917c-.267 0-.533.267-.533.533 0 .32.213.533.533.533s.533-.213.533-.533-.213-.533-.533-.533zM18.133 8.517c-.267 0-.533.267-.533.533 0 .32.213.533.533.533s.533-.213.533-.533-.213-.533-.533-.533zM18.133 5.317c-.267 0-.533.267-.533.533 0 .32.213.533.533.533s.533-.213.533-.533-.213-.533-.533-.533zM29.333 3.717c-.267 0-.533.267-.533.533 0 .32.213.533.533.533s.533-.213.533-.533-.213-.533-.533-.533zM29.333.517c-.267 0-.533.267-.533.533 0 .32.213.533.533.533s.533-.213.533-.533c0-.32-.213-.533-.533-.533zM30.933 2.117c-.267 0-.533.267-.533.533 0 .32.213.533.533.533s.533-.213.533-.533c0-.32-.213-.533-.533-.533zM27.733 2.117c-.267 0-.533.267-.533.533 0 .32.213.533.533.533s.533-.213.533-.533c0-.32-.213-.533-.533-.533zM26.133 3.717c-.267 0-.533.267-.533.533 0 .32.213.533.533.533s.533-.213.533-.533-.213-.533-.533-.533zM22.933 3.717c-.267 0-.533.267-.533.533 0 .32.213.533.533.533s.533-.213.533-.533-.213-.533-.533-.533zM26.133.517c-.267 0-.533.267-.533.533 0 .32.213.533.533.533s.533-.213.533-.533c0-.32-.213-.533-.533-.533zM22.933.517c-.267 0-.533.267-.533.533 0 .32.213.533.533.533s.533-.213.533-.533c0-.32-.213-.533-.533-.533zM24.533 2.117c-.267 0-.533.267-.533.533 0 .32.213.533.533.533s.533-.213.533-.533c0-.32-.213-.533-.533-.533zM21.333 2.117c-.267 0-.533.267-.533.533 0 .32.213.533.533.533s.533-.213.533-.533c0-.32-.213-.533-.533-.533zM19.733 3.717c-.267 0-.533.267-.533.533 0 .32.213.533.533.533s.533-.213.533-.533-.213-.533-.533-.533zM16.533 3.717c-.267 0-.533.267-.533.533 0 .32.213.533.533.533s.533-.213.533-.533-.213-.533-.533-.533zM19.733.517c-.267 0-.533.267-.533.533 0 .32.213.533.533.533s.533-.213.533-.533c0-.32-.213-.533-.533-.533zM16.533.517c-.267 0-.533.267-.533.533 0 .32.213.533.533.533s.533-.213.533-.533c0-.32-.213-.533-.533-.533zM18.133 2.117c-.267 0-.533.267-.533.533 0 .32.213.533.533.533s.533-.213.533-.533c0-.32-.213-.533-.533-.533z"/><path d="M32 .533c0-.32-.213-.533-.533-.533H.534C.214 0 .001.213.001.533v30.933c0 .32.213.533.533.533h15.467c.32 0 .533-.213.533-.533v-6.4h12.8c1.493 0 2.667-1.653 2.667-3.733V.533zm-15.467.534h14.4v17.265a2.632 2.632 0 0 0-.544-.435l-.047-.026-.063-.034-.06-.03a1.6 1.6 0 0 0-.121-.053l-.029-.012a2.04 2.04 0 0 0-.385-.109l-.04-.007a1.73 1.73 0 0 0-.071-.01l-.064-.007-.054-.005a1.693 1.693 0 0 0-.124-.004h-12.8V1.067zM13.867 24c-.507 0-.976-.432-1.273-1.085a3.85 3.85 0 0 1-.327-1.581c0-.315.036-.62.1-.904.231-1.014.833-1.763 1.5-1.763H27.455c-.489.675-.788 1.616-.788 2.667s.3 1.992.788 2.667H13.867zm1.6 6.933h-14.4V1.066h14.4v16.533h-1.6c-1.493 0-2.667 1.653-2.667 3.733s1.173 3.733 2.667 3.733h1.6v5.867zM29.333 24c-.507 0-.976-.432-1.273-1.085a3.85 3.85 0 0 1-.327-1.581c0-.315.036-.62.1-.904.231-1.014.832-1.762 1.498-1.763h.001c.577 0 1.106.562 1.387 1.372.134.387.213.829.213 1.295 0 1.44-.747 2.667-1.6 2.667z"/></symbol></defs></svg>