<svg aria-hidden="true" style="position: absolute; width: 0; height: 0; overflow: hidden;" version="1.1" xmlns="http://www.w3.org/2000/svg" xmlns:xlink="http://www.w3.org/1999/xlink">
<defs>
<symbol id="delete" viewBox="0 0 32 32">
<path d="M30.918 6.303l-9.696 9.697 9.696 9.696c1.442 1.443 1.442 3.78 0 5.223-0.721 0.721-1.665 1.081-2.61 1.081-0.946 0-1.891-0.36-2.611-1.081l-9.698-9.697-9.697 9.697c-0.721 0.721-1.665 1.081-2.61 1.081s-1.889-0.36-2.61-1.081c-1.442-1.442-1.442-3.779 0-5.223l9.696-9.696-9.696-9.697c-1.442-1.442-1.442-3.78 0-5.222 1.442-1.441 3.778-1.441 5.221 0l9.698 9.697 9.697-9.697c1.443-1.441 3.779-1.441 5.221 0 1.443 1.442 1.443 3.78 0.001 5.222z"></path>
</symbol>
<symbol id="title" viewBox="0 0 32 32">
<path d="M29.333 16.517c-0.267 0-0.533 0.267-0.533 0.533 0 0.32 0.213 0.533 0.533 0.533s0.533-0.213 0.533-0.533-0.213-0.533-0.533-0.533z"></path>
<path d="M30.933 14.917c-0.267 0-0.533 0.267-0.533 0.533 0 0.32 0.213 0.533 0.533 0.533s0.533-0.213 0.533-0.533-0.213-0.533-0.533-0.533z"></path>
<path d="M27.733 14.917c-0.267 0-0.533 0.267-0.533 0.533 0 0.32 0.213 0.533 0.533 0.533s0.533-0.213 0.533-0.533-0.213-0.533-0.533-0.533z"></path>
<path d="M26.133 16.517c-0.267 0-0.533 0.267-0.533 0.533 0 0.32 0.213 0.533 0.533 0.533s0.533-0.213 0.533-0.533-0.213-0.533-0.533-0.533z"></path>
<path d="M22.933 16.517c-0.267 0-0.533 0.267-0.533 0.533 0 0.32 0.213 0.533 0.533 0.533s0.533-0.213 0.533-0.533-0.213-0.533-0.533-0.533z"></path>
<path d="M24.533 14.917c-0.267 0-0.533 0.267-0.533 0.533 0 0.32 0.213 0.533 0.533 0.533s0.533-0.213 0.533-0.533-0.213-0.533-0.533-0.533z"></path>
<path d="M21.333 14.917c-0.267 0-0.533 0.267-0.533 0.533 0 0.32 0.213 0.533 0.533 0.533s0.533-0.213 0.533-0.533-0.213-0.533-0.533-0.533z"></path>
<path d="M19.733 16.517c-0.267 0-0.533 0.267-0.533 0.533 0 0.32 0.213 0.533 0.533 0.533s0.533-0.213 0.533-0.533-0.213-0.533-0.533-0.533z"></path>
<path d="M16.533 16.517c-0.267 0-0.533 0.267-0.533 0.533 0 0.32 0.213 0.533 0.533 0.533s0.533-0.213 0.533-0.533-0.213-0.533-0.533-0.533z"></path>
<path d="M18.133 14.917c-0.267 0-0.533 0.267-0.533 0.533 0 0.32 0.213 0.533 0.533 0.533s0.533-0.213 0.533-0.533-0.213-0.533-0.533-0.533z"></path>
<path d="M29.333 13.317c-0.267-0-0.533 0.267-0.533 0.533 0 0.32 0.213 0.533 0.533 0.533s0.533-0.213 0.533-0.533c0-0.32-0.213-0.533-0.533-0.533z"></path>
<path d="M29.333 10.117c-0.267 0-0.533 0.267-0.533 0.533 0 0.32 0.213 0.533 0.533 0.533s0.533-0.213 0.533-0.533-0.213-0.533-0.533-0.533z"></path>
<path d="M30.933 11.717c-0.267 0-0.533 0.267-0.533 0.533 0 0.32 0.213 0.533 0.533 0.533s0.533-0.213 0.533-0.533-0.213-0.533-0.533-0.533z"></path>
<path d="M27.733 11.717c-0.267 0-0.533 0.267-0.533 0.533 0 0.32 0.213 0.533 0.533 0.533s0.533-0.213 0.533-0.533-0.213-0.533-0.533-0.533z"></path>
<path d="M26.133 13.317c-0.267-0-0.533 0.267-0.533 0.533 0 0.32 0.213 0.533 0.533 0.533s0.533-0.213 0.533-0.533c0-0.32-0.213-0.533-0.533-0.533z"></path>
<path d="M22.933 13.317c-0.267-0-0.533 0.267-0.533 0.533 0 0.32 0.213 0.533 0.533 0.533s0.533-0.213 0.533-0.533c0-0.32-0.213-0.533-0.533-0.533z"></path>
<path d="M26.133 10.117c-0.267 0-0.533 0.267-0.533 0.533 0 0.32 0.213 0.533 0.533 0.533s0.533-0.213 0.533-0.533-0.213-0.533-0.533-0.533z"></path>
<path d="M22.933 10.117c-0.267 0-0.533 0.267-0.533 0.533 0 0.32 0.213 0.533 0.533 0.533s0.533-0.213 0.533-0.533-0.213-0.533-0.533-0.533z"></path>
<path d="M24.533 11.717c-0.267 0-0.533 0.267-0.533 0.533 0 0.32 0.213 0.533 0.533 0.533s0.533-0.213 0.533-0.533-0.213-0.533-0.533-0.533z"></path>
<path d="M21.333 11.717c-0.267 0-0.533 0.267-0.533 0.533 0 0.32 0.213 0.533 0.533 0.533s0.533-0.213 0.533-0.533-0.213-0.533-0.533-0.533z"></path>
<path d="M19.733 13.317c-0.267-0-0.533 0.267-0.533 0.533 0 0.32 0.213 0.533 0.533 0.533s0.533-0.213 0.533-0.533c0-0.32-0.213-0.533-0.533-0.533z"></path>
<path d="M16.533 13.317c-0.267-0-0.533 0.267-0.533 0.533 0 0.32 0.213 0.533 0.533 0.533s0.533-0.213 0.533-0.533c0-0.32-0.213-0.533-0.533-0.533z"></path>
<path d="M19.733 10.117c-0.267 0-0.533 0.267-0.533 0.533 0 0.32 0.213 0.533 0.533 0.533s0.533-0.213 0.533-0.533-0.213-0.533-0.533-0.533z"></path>
<path d="M16.533 10.117c-0.267 0-0.533 0.267-0.533 0.533 0 0.32 0.213 0.533 0.533 0.533s0.533-0.213 0.533-0.533-0.213-0.533-0.533-0.533z"></path>
<path d="M18.133 11.717c-0.267 0-0.533 0.267-0.533 0.533 0 0.32 0.213 0.533 0.533 0.533s0.533-0.213 0.533-0.533-0.213-0.533-0.533-0.533z"></path>
<path d="M29.333 6.917c-0.267 0-0.533 0.267-0.533 0.533 0 0.32 0.213 0.533 0.533 0.533s0.533-0.213 0.533-0.533-0.213-0.533-0.533-0.533z"></path>
<path d="M30.933 8.517c-0.267-0-0.533 0.267-0.533 0.533 0 0.32 0.213 0.533 0.533 0.533s0.533-0.213 0.533-0.533-0.213-0.533-0.533-0.533z"></path>
<path d="M27.733 8.517c-0.267-0-0.533 0.267-0.533 0.533 0 0.32 0.213 0.533 0.533 0.533s0.533-0.213 0.533-0.533-0.213-0.533-0.533-0.533z"></path>
<path d="M30.933 5.317c-0.267 0-0.533 0.267-0.533 0.533 0 0.32 0.213 0.533 0.533 0.533s0.533-0.213 0.533-0.533-0.213-0.533-0.533-0.533z"></path>
<path d="M27.733 5.317c-0.267 0-0.533 0.267-0.533 0.533 0 0.32 0.213 0.533 0.533 0.533s0.533-0.213 0.533-0.533-0.213-0.533-0.533-0.533z"></path>
<path d="M26.133 6.917c-0.267 0-0.533 0.267-0.533 0.533 0 0.32 0.213 0.533 0.533 0.533s0.533-0.213 0.533-0.533-0.213-0.533-0.533-0.533z"></path>
<path d="M22.933 6.917c-0.267 0-0.533 0.267-0.533 0.533 0 0.32 0.213 0.533 0.533 0.533s0.533-0.213 0.533-0.533-0.213-0.533-0.533-0.533z"></path>
<path d="M24.533 8.517c-0.267-0-0.533 0.267-0.533 0.533 0 0.32 0.213 0.533 0.533 0.533s0.533-0.213 0.533-0.533-0.213-0.533-0.533-0.533z"></path>
<path d="M21.333 8.517c-0.267-0-0.533 0.267-0.533 0.533 0 0.32 0.213 0.533 0.533 0.533s0.533-0.213 0.533-0.533-0.213-0.533-0.533-0.533z"></path>
<path d="M24.533 5.317c-0.267 0-0.533 0.267-0.533 0.533 0 0.32 0.213 0.533 0.533 0.533s0.533-0.213 0.533-0.533-0.213-0.533-0.533-0.533z"></path>
<path d="M21.333 5.317c-0.267 0-0.533 0.267-0.533 0.533 0 0.32 0.213 0.533 0.533 0.533s0.533-0.213 0.533-0.533-0.213-0.533-0.533-0.533z"></path>
<path d="M19.733 6.917c-0.267 0-0.533 0.267-0.533 0.533 0 0.32 0.213 0.533 0.533 0.533s0.533-0.213 0.533-0.533-0.213-0.533-0.533-0.533z"></path>
<path d="M16.533 6.917c-0.267 0-0.533 0.267-0.533 0.533 0 0.32 0.213 0.533 0.533 0.533s0.533-0.213 0.533-0.533-0.213-0.533-0.533-0.533z"></path>
<path d="M18.133 8.517c-0.267-0-0.533 0.267-0.533 0.533 0 0.32 0.213 0.533 0.533 0.533s0.533-0.213 0.533-0.533-0.213-0.533-0.533-0.533z"></path>
<path d="M18.133 5.317c-0.267 0-0.533 0.267-0.533 0.533 0 0.32 0.213 0.533 0.533 0.533s0.533-0.213 0.533-0.533-0.213-0.533-0.533-0.533z"></path>
<path d="M29.333 3.717c-0.267-0-0.533 0.267-0.533 0.533 0 0.32 0.213 0.533 0.533 0.533s0.533-0.213 0.533-0.533-0.213-0.533-0.533-0.533z"></path>
<path d="M29.333 0.517c-0.267 0-0.533 0.267-0.533 0.533 0 0.32 0.213 0.533 0.533 0.533s0.533-0.213 0.533-0.533c0-0.32-0.213-0.533-0.533-0.533z"></path>
<path d="M30.933 2.117c-0.267 0-0.533 0.267-0.533 0.533 0 0.32 0.213 0.533 0.533 0.533s0.533-0.213 0.533-0.533c0-0.32-0.213-0.533-0.533-0.533z"></path>
<path d="M27.733 2.117c-0.267 0-0.533 0.267-0.533 0.533 0 0.32 0.213 0.533 0.533 0.533s0.533-0.213 0.533-0.533c0-0.32-0.213-0.533-0.533-0.533z"></path>
<path d="M26.133 3.717c-0.267-0-0.533 0.267-0.533 0.533 0 0.32 0.213 0.533 0.533 0.533s0.533-0.213 0.533-0.533-0.213-0.533-0.533-0.533z"></path>
<path d="M22.933 3.717c-0.267-0-0.533 0.267-0.533 0.533 0 0.32 0.213 0.533 0.533 0.533s0.533-0.213 0.533-0.533-0.213-0.533-0.533-0.533z"></path>
<path d="M26.133 0.517c-0.267 0-0.533 0.267-0.533 0.533 0 0.32 0.213 0.533 0.533 0.533s0.533-0.213 0.533-0.533c0-0.32-0.213-0.533-0.533-0.533z"></path>
<path d="M22.933 0.517c-0.267 0-0.533 0.267-0.533 0.533 0 0.32 0.213 0.533 0.533 0.533s0.533-0.213 0.533-0.533c0-0.32-0.213-0.533-0.533-0.533z"></path>
<path d="M24.533 2.117c-0.267 0-0.533 0.267-0.533 0.533 0 0.32 0.213 0.533 0.533 0.533s0.533-0.213 0.533-0.533c0-0.32-0.213-0.533-0.533-0.533z"></path>
<path d="M21.333 2.117c-0.267 0-0.533 0.267-0.533 0.533 0 0.32 0.213 0.533 0.533 0.533s0.533-0.213 0.533-0.533c0-0.32-0.213-0.533-0.533-0.533z"></path>
<path d="M19.733 3.717c-0.267-0-0.533 0.267-0.533 0.533 0 0.32 0.213 0.533 0.533 0.533s0.533-0.213 0.533-0.533-0.213-0.533-0.533-0.533z"></path>
<path d="M16.533 3.717c-0.267-0-0.533 0.267-0.533 0.533 0 0.32 0.213 0.533 0.533 0.533s0.533-0.213 0.533-0.533-0.213-0.533-0.533-0.533z"></path>
<path d="M19.733 0.517c-0.267 0-0.533 0.267-0.533 0.533 0 0.32 0.213 0.533 0.533 0.533s0.533-0.213 0.533-0.533c0-0.32-0.213-0.533-0.533-0.533z"></path>
<path d="M16.533 0.517c-0.267 0-0.533 0.267-0.533 0.533 0 0.32 0.213 0.533 0.533 0.533s0.533-0.213 0.533-0.533c0-0.32-0.213-0.533-0.533-0.533z"></path>
<path d="M18.133 2.117c-0.267 0-0.533 0.267-0.533 0.533 0 0.32 0.213 0.533 0.533 0.533s0.533-0.213 0.533-0.533c0-0.32-0.213-0.533-0.533-0.533z"></path>
<path d="M32 0.533c0-0.32-0.213-0.533-0.533-0.533h-30.933c-0.32 0-0.533 0.213-0.533 0.533v30.933c0 0.32 0.213 0.533 0.533 0.533h15.467c0.32 0 0.533-0.213 0.533-0.533v-6.4h12.8c1.493 0 2.667-1.653 2.667-3.733 0 0 0 0 0-0s0 0 0 0v-20.8zM16.533 1.067h14.4v17.265c-0.146-0.151-0.303-0.282-0.47-0.389-0.024-0.016-0.049-0.032-0.074-0.046-0.015-0.009-0.031-0.017-0.047-0.026-0.021-0.012-0.042-0.023-0.063-0.034-0.020-0.010-0.040-0.020-0.060-0.030-0.016-0.008-0.032-0.015-0.048-0.022-0.024-0.011-0.048-0.021-0.073-0.031-0.010-0.004-0.020-0.008-0.029-0.012-0.124-0.049-0.253-0.085-0.385-0.109-0.013-0.002-0.026-0.005-0.040-0.007-0.024-0.004-0.047-0.007-0.071-0.010-0.021-0.003-0.043-0.005-0.064-0.007-0.018-0.002-0.036-0.003-0.054-0.005-0.041-0.003-0.082-0.004-0.124-0.004h-12.8v-16.533zM13.867 24c-0.507 0-0.976-0.432-1.273-1.085-0.204-0.447-0.327-0.996-0.327-1.581 0-0.315 0.036-0.62 0.1-0.904 0.231-1.014 0.833-1.763 1.5-1.763h2.132c0.001 0 0.001 0 0.001 0h11.455c-0.489 0.675-0.788 1.616-0.788 2.667s0.3 1.992 0.788 2.667h-13.588zM15.467 30.933h-14.4v-29.867h14.4v16.533h-1.6c-1.493 0-2.667 1.653-2.667 3.733s1.173 3.733 2.667 3.733h1.6v5.867zM29.333 24c-0.507 0-0.976-0.432-1.273-1.085-0.204-0.447-0.327-0.996-0.327-1.581 0-0.315 0.036-0.62 0.1-0.904 0.231-1.014 0.832-1.762 1.498-1.763h0.001c0.577 0 1.106 0.562 1.387 1.372 0.134 0.387 0.213 0.829 0.213 1.295 0 1.44-0.747 2.667-1.6 2.667z"></path>
</symbol>
</defs>
</svg>
